<svg width="4" height="16" viewBox="0 0 4 16" fill="none" xmlns="http://www.w3.org/2000/svg">
<path d="M1.9975 0C1.01566 0 0.219727 0.795938 0.219727 1.77778C0.219727 2.75962 1.01566 3.55556 1.9975 3.55556C2.97934 3.55556 3.77528 2.75962 3.77528 1.77778C3.77528 0.795938 2.97934 0 1.9975 0ZM1.9975 6.22222C1.01566 6.22222 0.219727 7.01816 0.219727 8C0.219727 8.98184 1.01566 9.77778 1.9975 9.77778C2.97934 9.77778 3.77528 8.98184 3.77528 8C3.77528 7.01816 2.97934 6.22222 1.9975 6.22222ZM1.9975 12.4444C1.01566 12.4444 0.219727 13.2404 0.219727 14.2222C0.219727 15.2041 1.01566 16 1.9975 16C2.97934 16 3.77528 15.2041 3.77528 14.2222C3.77528 13.2404 2.97934 12.4444 1.9975 12.4444Z" fill="#808080"/>
</svg>
